<svg width="416" height="416" viewBox="0 0 416 416" fill="none" xmlns="http://www.w3.org/2000/svg">
<path fill-rule="evenodd" clip-rule="evenodd" d="M288 15.988V31.975L324.607 32.238L361.215 32.5L254.607 137.439C195.973 195.156 148 242.638 148 242.954C148 243.697 172.347 268 173.09 268C173.399 268 220.868 220.037 278.576 161.415L383.5 54.83L383.762 91.415L384.025 128H400.012H416V64V0H352H288V15.988ZM50.225 33.522C31.356 37.62 14.097 51.752 5.765 69.929C-0.272997 83.101 -0.0669959 77.22 0.229004 227.285L0.500004 364.5L3.179 371.835C6.985 382.254 11.518 389.433 19.043 396.957C26.567 404.482 33.746 409.015 44.165 412.821L51.5 415.5H191.5H331.5L338.5 413.282C348.317 410.172 357.356 404.598 364.976 396.957C372.488 389.424 377.021 382.237 380.821 371.835L383.5 364.5L383.782 278.25L384.064 192H368.059H352.054L351.777 276.75L351.5 361.5L348.71 367.182C345.549 373.619 340.704 378.316 334.051 381.394L329.5 383.5H192H54.5L49.949 381.394C43.296 378.316 38.451 373.619 35.29 367.182L32.5 361.5V224V86.5L35.29 80.818C38.451 74.381 43.296 69.684 49.949 66.606C54.447 64.524 55.484 64.497 139.25 64.223L224 63.946V47.973V32L140.25 32.079C73.524 32.143 55.224 32.436 50.225 33.522Z" fill="white"/>
</svg>
