<svg width="512" height="512" viewBox="0 0 512 512" fill="none" xmlns="http://www.w3.org/2000/svg">
<path fill-rule="evenodd" clip-rule="evenodd" d="M320 79.988V95.975L356.607 96.238L393.215 96.5L286.607 201.439C227.973 259.156 180 306.638 180 306.954C180 307.697 204.347 332 205.09 332C205.399 332 252.868 284.037 310.576 225.415L415.5 118.83L415.762 155.415L416.025 192H432.012H448V128V64H384H320V79.988ZM82.225 97.522C63.356 101.62 46.097 115.752 37.765 133.929C31.727 147.101 31.933 141.22 32.229 291.285L32.5 428.5L35.179 435.835C38.985 446.254 43.518 453.433 51.043 460.957C58.567 468.482 65.746 473.015 76.165 476.821L83.5 479.5H223.5H363.5L370.5 477.282C380.317 474.172 389.356 468.598 396.976 460.957C404.488 453.424 409.021 446.237 412.821 435.835L415.5 428.5L415.782 342.25L416.064 256H400.059H384.054L383.777 340.75L383.5 425.5L380.71 431.182C377.549 437.619 372.704 442.316 366.051 445.394L361.5 447.5H224H86.5L81.949 445.394C75.296 442.316 70.451 437.619 67.29 431.182L64.5 425.5V288V150.5L67.29 144.818C70.451 138.381 75.296 133.684 81.949 130.606C86.447 128.524 87.484 128.497 171.25 128.223L256 127.946V111.973V96L172.25 96.079C105.524 96.143 87.224 96.436 82.225 97.522Z" fill="white"/>
</svg>
