<svg width="246" height="174" viewBox="0 0 246 174" fill="none" xmlns="http://www.w3.org/2000/svg">
<path fill-rule="evenodd" clip-rule="evenodd" d="M219.429 57.6149C213.783 56.6099 208.386 57.215 202.868 59.4717C201.965 59.8406 196.238 63.0837 188.013 67.8842C176.729 74.4696 174.747 75.6775 175.386 75.5788C179.474 74.9469 187.953 78.5109 190.656 81.9972C190.862 82.2624 191.066 82.4886 191.109 82.5002C191.151 82.5116 194.894 80.356 199.424 77.7099C204.548 74.7168 208.145 72.7176 208.941 72.4196C212.25 71.1812 215.024 71.0716 218.157 72.0555C220.914 72.9211 222.738 74.3375 224.322 76.8455C227.564 81.9741 226.391 88.4234 221.382 93.0078C220.052 94.2261 220.035 94.2357 196.115 108.288C190.805 111.407 189.321 112.125 187.385 112.519C184.961 113.012 183.236 112.966 180.908 112.346C177.903 111.546 175.53 109.821 173.909 107.257C171.972 104.199 169.256 102.966 165.99 103.666C164.628 103.958 163.233 104.825 162.227 106.006C161.484 106.878 161.318 107.182 160.935 108.363C160.427 109.929 160.386 111.368 160.811 112.713C161.751 115.687 165.621 120.244 169.236 122.633C177.125 127.846 186.935 128.516 195.992 124.459C197.9 123.604 225.819 107.438 227.804 106.039C232.143 102.979 235.19 99.3727 237.74 94.2761C238.734 92.2884 240.056 87.2121 240.189 84.8703C240.665 76.4694 237.768 69.1662 231.8 63.7224C228.545 60.7541 223.742 58.3823 219.429 57.6149ZM176.526 82.7582C170.273 81.5783 163.746 82.5602 157.929 85.5555C154.583 87.2794 127.812 103.099 126.558 104.094C122.919 106.982 120.142 110.354 118.002 114.482C117.393 115.655 117.174 116.309 116.299 119.553C115.177 123.714 115.063 124.658 115.263 128.107C115.828 137.881 121.746 146.266 130.865 150.213C132.573 150.952 137.457 152.089 139.29 152.175C144.532 152.416 149.183 151.515 153.617 149.397C155.84 148.335 180.857 133.647 180.23 133.772C176.741 134.468 169.749 131.868 165.848 128.421C165.275 127.916 164.724 127.339 164.624 127.139C164.444 126.783 164.261 126.879 156.006 131.678C145.967 137.515 145.304 137.797 141.308 137.946C140.138 137.989 139.64 137.921 138.011 137.496C135.689 136.889 135.008 136.533 133.24 135C132.078 133.992 131.78 133.625 130.976 132.212C129.905 130.329 129.431 128.767 129.332 126.798C129.269 125.56 129.32 125.205 129.833 123.259C130.472 120.834 131.007 119.77 132.499 117.964C134.202 115.902 134.868 115.465 148.695 107.336C164.7 97.9255 164.477 98.0541 165.69 97.5549C167.075 96.9856 169.772 96.4971 171.317 96.5355C175.857 96.6489 179.364 98.6061 181.73 102.348C182.859 104.134 184.209 105.148 186.11 105.638C188.765 106.323 191.432 105.479 193.197 103.397C195.056 101.205 195.435 98.5882 194.307 95.7622C193.913 94.7749 192.306 92.4134 191.061 90.989C187.391 86.7914 182.138 83.8172 176.526 82.7582Z" fill="#0386C9"/>
<path d="M16.8 75.75C14.55 75.75 12.35 75.575 10.2 75.225C8.05001 74.925 6.02501 74.475 4.125 73.875V63.825C5.925 64.575 7.85 65.175 9.9 65.625C12 66.075 13.95 66.3 15.75 66.3C18.2 66.3 20.075 65.875 21.375 65.025C22.6751 64.125 23.325 62.825 23.325 61.125C23.325 60.125 23.075 59.2001 22.575 58.35C22.125 57.45 21.3251 56.55 20.175 55.65C19.0751 54.7 17.55 53.6749 15.6 52.575C12.4 50.6749 9.85001 48.85 7.95 47.1C6.05 45.3 4.67501 43.4 3.825 41.4C3.025 39.35 2.625 37.05 2.625 34.5C2.625 29.4 4.24999 25.6249 7.5 23.175C10.8 20.725 15.6251 19.5 21.975 19.5C23.7251 19.5 25.5251 19.6 27.375 19.8C29.2751 19.95 31.1501 20.225 33 20.625V37.5H22.5V24.675L26.175 29.25C25.425 29.15 24.65 29.075 23.85 29.025C23.0501 28.9751 22.325 28.95 21.675 28.95C18.725 28.95 16.6001 29.4 15.3 30.3C14.05 31.1501 13.425 32.6 13.425 34.65C13.425 35.9 13.675 37.05 14.175 38.1C14.725 39.15 15.6251 40.2 16.875 41.25C18.1751 42.25 19.9001 43.375 22.05 44.625C25.05 46.375 27.425 48.075 29.175 49.725C30.975 51.3251 32.25 53.075 33 54.975C33.75 56.825 34.125 58.9751 34.125 61.425C34.125 66.275 32.7 69.875 29.85 72.225C27.05 74.5751 22.7 75.75 16.8 75.75ZM57.525 75.75C51.975 75.75 47.675 74.6 44.625 72.3C41.625 70 40.125 66.725 40.125 62.475C40.125 58.275 41.625 55.0751 44.625 52.875C47.675 50.625 52.0751 49.5 57.825 49.5H65.7V57.75H57.975C55.475 57.75 53.6 58.125 52.35 58.875C51.1001 59.625 50.475 60.7999 50.475 62.4C50.475 63.9499 51.05 65.1499 52.2 66C53.3501 66.7999 54.975 67.2 57.075 67.2C58.325 67.2 59.4251 67.05 60.375 66.75C61.3751 66.4001 62.325 65.875 63.225 65.175L60.525 70.65V49.8C60.525 48.05 60.4001 46.775 60.15 45.975C59.9 45.125 59.3501 44.575 58.5 44.325C57.7001 44.0749 56.45 43.95 54.75 43.95C53.5001 43.95 52.3001 43.9999 51.15 44.1C50 44.2001 48.725 44.4 47.325 44.7C45.975 44.95 44.325 45.35 42.375 45.9V37.2C44.175 36.55 46.2251 36.075 48.525 35.775C50.825 35.4251 53.2751 35.25 55.875 35.25C59.7251 35.25 62.7251 35.6749 64.875 36.525C67.0751 37.375 68.625 38.85 69.525 40.95C70.425 43 70.875 45.85 70.875 49.5V73.35C69.1751 74.1 67.125 74.6749 64.725 75.075C62.325 75.525 59.925 75.75 57.525 75.75ZM100.725 75.75C96.075 75.75 92.75 74.825 90.75 72.975C88.7501 71.075 87.75 67.9249 87.75 63.525V29.1H77.25V20.25H98.25V60.975C98.25 63.1751 98.5751 64.6751 99.225 65.475C99.9251 66.225 101.275 66.6 103.275 66.6C104.575 66.6 105.8 66.4751 106.95 66.225C108.15 65.975 109.25 65.625 110.25 65.175V74.325C108.7 74.8249 107.15 75.175 105.6 75.375C104.05 75.625 102.425 75.75 100.725 75.75ZM125.325 75L113.25 36H124.2L131.1 62.85H131.4L138.3 36H149.25L137.175 75H125.325ZM170.025 75.75C164.475 75.75 160.175 74.6 157.125 72.3C154.125 70 152.625 66.725 152.625 62.475C152.625 58.275 154.125 55.0751 157.125 52.875C160.175 50.625 164.576 49.5 170.325 49.5H178.2V57.75H170.475C167.975 57.75 166.1 58.125 164.85 58.875C163.601 59.625 162.975 60.7999 162.975 62.4C162.975 63.9499 163.55 65.1499 164.7 66C165.851 66.7999 167.475 67.2 169.575 67.2C170.825 67.2 171.926 67.05 172.875 66.75C173.876 66.4001 174.825 65.875 175.725 65.175L173.025 70.65V49.8C173.025 48.05 172.901 46.775 172.65 45.975C172.4 45.125 171.851 44.575 171 44.325C170.201 44.0749 168.95 43.95 167.25 43.95C166.001 43.95 164.801 43.9999 163.65 44.1C162.5 44.2001 161.225 44.4 159.825 44.7C158.475 44.95 156.825 45.35 154.875 45.9V37.2C156.675 36.55 158.726 36.075 161.025 35.775C163.325 35.4251 165.776 35.25 168.375 35.25C172.226 35.25 175.226 35.6749 177.375 36.525C179.576 37.375 181.125 38.85 182.025 40.95C182.925 43 183.375 45.85 183.375 49.5V73.35C181.676 74.1 179.625 74.6749 177.225 75.075C174.825 75.525 172.425 75.75 170.025 75.75ZM4.32 148.5V104.7H11.16V142.62H27.18V148.5H4.32ZM44.82 148.5V122.94H34.62V117.3H51.42V148.5H44.82ZM47.22 112.68C45.7001 112.68 44.48 112.26 43.56 111.42C42.6401 110.58 42.18 109.42 42.18 107.94C42.18 106.46 42.6401 105.3 43.56 104.46C44.48 103.62 45.7001 103.2 47.22 103.2C48.74 103.2 49.94 103.62 50.82 104.46C51.74 105.3 52.2 106.46 52.2 107.94C52.2 109.42 51.74 110.58 50.82 111.42C49.94 112.26 48.74 112.68 47.22 112.68ZM63.24 118.62C64.8401 117.94 66.54 117.46 68.34 117.18C70.14 116.86 72.1601 116.7 74.4 116.7C77.6 116.7 80.0801 117.04 81.84 117.72C83.64 118.4 84.9 119.58 85.62 121.26C86.3801 122.9 86.76 125.18 86.76 128.1V148.5H80.22V128.46C80.22 126.86 80.04 125.64 79.68 124.8C79.3601 123.92 78.78 123.3 77.94 122.94C77.1401 122.58 75.98 122.4 74.46 122.4C73.7 122.4 72.98 122.46 72.3 122.58C71.66 122.7 70.9601 122.9 70.2 123.18C69.48 123.42 68.6 123.82 67.56 124.38L69.78 120.3V148.5H63.24V118.62ZM93.54 148.5V104.7H100.02V130.26H100.26L111.18 117.3H118.86L106.32 132.3L119.04 148.5H111.42L100.26 134.46H100.02V148.5H93.54Z" fill="#0386C9"/>
</svg>
