<svg width="123" height="87" viewBox="0 0 123 87" fill="none" xmlns="http://www.w3.org/2000/svg">
<path fill-rule="evenodd" clip-rule="evenodd" d="M109.714 28.8074C106.891 28.3049 104.193 28.6075 101.433 29.7359C100.982 29.9203 98.1184 31.5419 94.0062 33.9421C88.3639 37.2348 87.3732 37.8388 87.6927 37.7894C89.7364 37.4734 93.9762 39.2555 95.3277 40.9986C95.4304 41.1312 95.5324 41.2443 95.5542 41.2501C95.5752 41.2558 97.4464 40.178 99.7114 38.8549C102.273 37.3584 104.072 36.3588 104.47 36.2098C106.125 35.5906 107.511 35.5358 109.078 36.0278C110.457 36.4606 111.369 37.1687 112.161 38.4227C113.781 40.9871 113.195 44.2117 110.691 46.5039C110.025 47.1131 110.017 47.1179 98.0569 54.1438C95.4019 55.7033 94.6602 56.0627 93.6919 56.2595C92.4799 56.5058 91.6174 56.4828 90.4534 56.1728C88.9512 55.7729 87.7647 54.9103 86.9539 53.6287C85.9857 52.0994 84.6274 51.4831 82.9947 51.833C82.3137 51.979 81.6162 52.4126 81.1129 53.0032C80.7417 53.4388 80.6584 53.5908 80.4672 54.1814C80.2129 54.9647 80.1927 55.684 80.4049 56.3566C80.8752 57.8437 82.8102 60.122 84.6177 61.3167C88.5619 63.9233 93.4669 64.2579 97.9954 62.2295C98.9494 61.8018 112.909 53.7192 113.901 53.0195C116.071 51.4897 117.594 49.6864 118.869 47.138C119.367 46.1442 120.027 43.6061 120.094 42.4352C120.332 38.2347 118.884 34.5831 115.899 31.8612C114.272 30.377 111.87 29.1911 109.714 28.8074ZM88.2627 41.3791C85.1359 40.7891 81.8727 41.2801 78.9642 42.7778C77.2909 43.6397 63.9054 51.5495 63.2784 52.0471C61.4592 53.4909 60.0704 55.1771 59.0004 57.2408C58.6962 57.8276 58.5864 58.1546 58.1492 59.7764C57.5882 61.8571 57.531 62.3288 57.6308 64.0535C57.9133 68.9404 60.8723 73.1329 65.4318 75.1065C66.2862 75.4762 68.7282 76.0448 69.6444 76.0875C72.2657 76.2082 74.5911 75.7575 76.8079 74.6986C77.9194 74.1674 90.4279 66.8233 90.1144 66.8859C88.3699 67.2341 84.8742 65.9338 82.9234 64.2106C82.6369 63.9581 82.3617 63.6696 82.3114 63.5695C82.2214 63.3914 82.1299 63.4394 78.0027 65.8388C72.9831 68.7575 72.6517 68.8988 70.6536 68.9729C70.0686 68.9946 69.8196 68.9606 69.0051 68.7479C67.844 68.4446 67.5037 68.2667 66.6196 67.5C66.0386 66.9962 65.8895 66.8125 65.4875 66.1059C64.952 65.1643 64.7149 64.3837 64.6653 63.399C64.6342 62.7801 64.6593 62.6023 64.9158 61.6295C65.2354 60.4169 65.5032 59.8851 66.249 58.9823C67.1007 57.951 67.4335 57.7326 74.3472 53.6679C82.3497 48.9628 82.2379 49.0271 82.8447 48.7775C83.5369 48.4928 84.8854 48.2486 85.6579 48.2678C87.9282 48.3245 89.6817 49.303 90.8644 51.1738C91.4292 52.067 92.1042 52.5739 93.0544 52.819C94.3819 53.1613 95.7154 52.7396 96.5982 51.6986C97.5274 50.6025 97.7172 49.2941 97.1532 47.8811C96.9559 47.3875 96.1527 46.2067 95.5302 45.4945C93.6949 43.3957 91.0684 41.9086 88.2627 41.3791Z" fill="white"/>
<path d="M8.4 37.875C7.275 37.875 6.175 37.7875 5.1 37.6125C4.025 37.4625 3.0125 37.2375 2.0625 36.9375V31.9125C2.9625 32.2875 3.925 32.5875 4.95 32.8125C6 33.0375 6.975 33.15 7.875 33.15C9.09998 33.15 10.0375 32.9375 10.6875 32.5125C11.3375 32.0625 11.6625 31.4125 11.6625 30.5625C11.6625 30.0625 11.5375 29.6 11.2875 29.175C11.0625 28.725 10.6625 28.275 10.0875 27.825C9.53753 27.35 8.775 26.8375 7.8 26.2875C6.2 25.3375 4.925 24.425 3.975 23.55C3.025 22.65 2.3375 21.7 1.9125 20.7C1.5125 19.675 1.3125 18.525 1.3125 17.25C1.3125 14.7 2.125 12.8125 3.75 11.5875C5.4 10.3625 7.81252 9.75 10.9875 9.75C11.8625 9.75 12.7625 9.80002 13.6875 9.9C14.6375 9.975 15.575 10.1125 16.5 10.3125V18.75H11.25V12.3375L13.0875 14.625C12.7125 14.575 12.325 14.5375 11.925 14.5125C11.525 14.4875 11.1625 14.475 10.8375 14.475C9.36247 14.475 8.30002 14.7 7.65 15.15C7.025 15.575 6.7125 16.3 6.7125 17.325C6.7125 17.95 6.8375 18.525 7.0875 19.05C7.3625 19.575 7.81252 20.1 8.4375 20.625C9.08752 21.125 9.95002 21.6875 11.025 22.3125C12.525 23.1875 13.7125 24.0375 14.5875 24.8625C15.4875 25.6625 16.125 26.5375 16.5 27.4875C16.875 28.4125 17.0625 29.4875 17.0625 30.7125C17.0625 33.1375 16.35 34.9375 14.925 36.1125C13.525 37.2875 11.35 37.875 8.4 37.875ZM28.7625 37.875C25.9875 37.875 23.8375 37.3 22.3125 36.15C20.8125 35 20.0625 33.3625 20.0625 31.2375C20.0625 29.1375 20.8125 27.5375 22.3125 26.4375C23.8375 25.3125 26.0375 24.75 28.9125 24.75H32.85V28.875H28.9875C27.7375 28.875 26.8 29.0625 26.175 29.4375C25.55 29.8125 25.2375 30.4 25.2375 31.2C25.2375 31.975 25.525 32.575 26.1 33C26.675 33.4 27.4875 33.6 28.5375 33.6C29.1625 33.6 29.7125 33.525 30.1875 33.375C30.6875 33.2 31.1625 32.9375 31.6125 32.5875L30.2625 35.325V24.9C30.2625 24.025 30.2 23.3875 30.075 22.9875C29.95 22.5625 29.675 22.2875 29.25 22.1625C28.85 22.0375 28.225 21.975 27.375 21.975C26.75 21.975 26.15 22 25.575 22.05C25 22.1 24.3625 22.2 23.6625 22.35C22.9875 22.475 22.1625 22.675 21.1875 22.95V18.6C22.0875 18.275 23.1125 18.0375 24.2625 17.8875C25.4125 17.7125 26.6375 17.625 27.9375 17.625C29.8625 17.625 31.3625 17.8375 32.4375 18.2625C33.5375 18.6875 34.3125 19.425 34.7625 20.475C35.2125 21.5 35.4375 22.925 35.4375 24.75V36.675C34.5875 37.05 33.5625 37.3375 32.3625 37.5375C31.1625 37.7625 29.9625 37.875 28.7625 37.875ZM50.3625 37.875C48.0375 37.875 46.375 37.4125 45.375 36.4875C44.375 35.5375 43.875 33.9625 43.875 31.7625V14.55H38.625V10.125H49.125V30.4875C49.125 31.5875 49.2875 32.3375 49.6125 32.7375C49.9625 33.1125 50.6375 33.3 51.6375 33.3C52.2875 33.3 52.9 33.2375 53.475 33.1125C54.075 32.9875 54.625 32.8125 55.125 32.5875V37.1625C54.35 37.4125 53.575 37.5875 52.8 37.6875C52.025 37.8125 51.2125 37.875 50.3625 37.875ZM62.6625 37.5L56.625 18H62.1L65.55 31.425H65.7L69.15 18H74.625L68.5875 37.5H62.6625ZM85.0125 37.875C82.2375 37.875 80.0872 37.3 78.5625 36.15C77.0625 35 76.3125 33.3625 76.3125 31.2375C76.3125 29.1375 77.0625 27.5375 78.5625 26.4375C80.0872 25.3125 82.2878 24.75 85.1625 24.75H89.1V28.875H85.2375C83.9873 28.875 83.0498 29.0625 82.425 29.4375C81.8003 29.8125 81.4875 30.4 81.4875 31.2C81.4875 31.975 81.7747 32.575 82.35 33C82.9253 33.4 83.7375 33.6 84.7875 33.6C85.4123 33.6 85.9628 33.525 86.4375 33.375C86.9378 33.2 87.4125 32.9375 87.8625 32.5875L86.5125 35.325V24.9C86.5125 24.025 86.4502 23.3875 86.325 22.9875C86.1997 22.5625 85.9252 22.2875 85.5 22.1625C85.1003 22.0375 84.4747 21.975 83.625 21.975C83.0003 21.975 82.4002 22 81.825 22.05C81.2497 22.1 80.6123 22.2 79.9125 22.35C79.2375 22.475 78.4125 22.675 77.4375 22.95V18.6C78.3375 18.275 79.3627 18.0375 80.5125 17.8875C81.6622 17.7125 82.8877 17.625 84.1875 17.625C86.1127 17.625 87.6127 17.8375 88.6875 18.2625C89.7878 18.6875 90.5625 19.425 91.0125 20.475C91.4625 21.5 91.6875 22.925 91.6875 24.75V36.675C90.8378 37.05 89.8125 37.3375 88.6125 37.5375C87.4125 37.7625 86.2125 37.875 85.0125 37.875ZM2.16 74.25V52.35H5.58V71.31H13.59V74.25H2.16ZM22.41 74.25V61.47H17.31V58.65H25.71V74.25H22.41ZM23.61 56.34C22.85 56.34 22.24 56.13 21.78 55.71C21.32 55.29 21.09 54.71 21.09 53.97C21.09 53.23 21.32 52.65 21.78 52.23C22.24 51.81 22.85 51.6 23.61 51.6C24.37 51.6 24.97 51.81 25.41 52.23C25.87 52.65 26.1 53.23 26.1 53.97C26.1 54.71 25.87 55.29 25.41 55.71C24.97 56.13 24.37 56.34 23.61 56.34ZM31.62 59.31C32.42 58.97 33.27 58.73 34.17 58.59C35.07 58.43 36.08 58.35 37.2 58.35C38.8 58.35 40.04 58.52 40.92 58.86C41.82 59.2 42.45 59.79 42.81 60.63C43.19 61.45 43.38 62.59 43.38 64.05V74.25H40.11V64.23C40.11 63.43 40.02 62.82 39.84 62.4C39.68 61.96 39.39 61.65 38.97 61.47C38.57 61.29 37.99 61.2 37.23 61.2C36.85 61.2 36.49 61.23 36.15 61.29C35.83 61.35 35.48 61.45 35.1 61.59C34.74 61.71 34.3 61.91 33.78 62.19L34.89 60.15V74.25H31.62V59.31ZM46.77 74.25V52.35H50.01V65.13H50.13L55.59 58.65H59.43L53.16 66.15L59.52 74.25H55.71L50.13 67.23H50.01V74.25H46.77Z" fill="white"/>
</svg>
